#!OML:ASF Y:\EmotionMaleHayes\Project 1\Capture day 1\Session 1\Male1.ASF
:FULLY-SPECIFIED
:DEGREES
840
root 40.5462 16.8218 -0.164255 870.978 98.5533 873.214
lowerback 2.37243 4.56431 2.75855
upperback -0.291364 6.16855 0.0773576
thorax -1.34213 3.06142 -1.65544
lowerneck -14.6288 12.5085 15.5833
upperneck 15.4441 14.9314 -6.4218
head 8.88746 7.40665 -2.6365
rclavicle -2.54569e-014 -1.35174e-014
rhumerus -32.6423 25.3672 -99.669
rradius 50.6795
rwrist -1.94763
rhand -7.01259 -30.7275
rfingers 7.12502
rthumb 18.8587 -59.8333
lclavicle -2.54569e-014 -1.35174e-014
lhumerus -43.5043 -5.42677 87.1798
lradius 25.3346
lwrist -10.3504
lhand -9.44061 -22.9609
lfingers 7.12502
lthumb 16.5223 6.35564
rfemur 22.4993 1.68893 23.7324
rtibia 7.60628
rfoot -18.0895 6.74888
rtoes 9.49464
lfemur -7.11022 3.45251 -9.53959
ltibia 2.38438
lfoot 0.74203 10.4871
ltoes 11.1929
841
root 40.6491 16.8385 -0.197309 875.648 98.1879 877.798
lowerback 2.10777 4.46413 2.07617
upperback -0.425743 6.00573 -0.181667
thorax -1.38155 2.9826 -1.52556
lowerneck -15.2721 12.6221 14.8842
upperneck 16.154 15.0268 -5.61975
head 9.12932 7.47749 -2.20767
rclavicle -8.80865e-015 -6.36111e-015
rhumerus -33.3947 25.2313 -100.079
rradius 50.3542
rwrist -1.80923
rhand -6.82995 -30.7501
rfingers 7.12502
rthumb 19.0344 -59.8387
lclavicle -8.80865e-015 -6.36111e-015
lhumerus -43.4925 -5.32943 87.0465
lradius 25.2035
lwrist -10.6405
lhand -9.29254 -22.8237
lfingers 7.12502
lthumb 16.6648 6.48087
rfemur 22.5832 1.57992 22.4924
rtibia 7.81404
rfoot -17.5739 7.07821
rtoes 9.23379
lfemur -7.02104 3.11056 -10.7951
ltibia 2.6734
lfoot 0.486026 10.4052
ltoes 11.4701
842
root 40.7486 16.8542 -0.224011 877.253 98.1889 879.383
lowerback 1.88305 4.48626 1.95413
upperback -0.355499 6.025 -0.279358
thorax -1.18509 2.99609 -1.5347
lowerneck -14.0548 12.4949 15.8215
upperneck 15.0608 15.0061 -6.77194
head 8.71422 7.43593 -2.81147
rclavicle -2.91965e-014 7.95139e-016
rhumerus -33.6716 24.9134 -100.092
rradius 49.9978
rwrist -1.6421
rhand -6.68349 -30.6302
rfingers 7.12502
rthumb 19.1752 -59.7049
lclavicle -2.91965e-014 7.95139e-016
lhumerus -43.0206 -5.50368 87.0561
lradius 24.9756
lwrist -10.9156
lhand -9.2517 -22.7112
lfingers 7.12502
lthumb 16.7041 6.5901
rfemur 22.6665 1.79326 22.1366
rtibia 8.13634
rfoot -17.3621 7.0989
rtoes 8.95195
lfemur -6.75459 3.0241 -11.2503
ltibia 2.84485
lfoot 0.364384 10.2958
ltoes 11.0036
843
root 40.8397 16.8694 -0.244752 877.586 98.3911 879.773
lowerback 1.99031 4.49731 1.91803
upperback -0.41919 6.04187 -0.268044
thorax -1.31465 3.00261 -1.51686
lowerneck -15.304 12.6196 14.8944
upperneck 16.1605 15.0389 -5.72649
head 9.14814 7.4726 -2.24072
rclavicle 4.68511e-014 3.57812e-015
rhumerus -34.174 24.8119 -100.286
rradius 49.5564
rwrist -1.79568
rhand -6.90754 -30.4985
rfingers 7.12502
rthumb 18.9597 -59.5945
lclavicle 4.68511e-014 3.57812e-015
lhumerus -42.8332 -5.53163 86.9926
lradius 24.9607
lwrist -11.1418
lhand -9.34483 -22.8171
lfingers 7.12502
lthumb 16.6145 6.49177
rfemur 22.7353 2.29244 22.2536
rtibia 8.60894
rfoot -17.1332 6.77101
rtoes 8.53371
lfemur -6.371 3.23142 -11.3017
ltibia 2.89942
lfoot 0.389375 10.3512
ltoes 11.3877
844
root 40.937 16.8959 -0.272712 880.786 97.6925 883.492
lowerback 2.21935 4.29032 1.26341
upperback -0.131788 5.7487 -0.463868
thorax -1.20284 2.86366 -1.35512
lowerneck -15.5888 12.6167 14.6834
upperneck 16.2165 15.0138 -5.60947
head 9.18688 7.45204 -2.16038
rclavicle 2.07606e-014 -4.37326e-015
rhumerus -34.3049 24.8829 -100.363
rradius 48.9898
rwrist -2.40455
rhand -7.42332 -30.3086
rfingers 7.12502
rthumb 18.4637 -59.4524
lclavicle 2.07606e-014 -4.37326e-015
lhumerus -42.292 -5.60529 86.9289
lradius 24.9579
lwrist -11.3646
lhand -9.49026 -22.8677
lfingers 7.12502
lthumb 16.4745 6.45286
rfemur 23.5417 2.4885 21.526
rtibia 8.67536
rfoot -16.6129 6.00523
rtoes 8.23411
lfemur -5.64022 2.89842 -12.3938
ltibia 2.92633
lfoot 0.467362 10.3554
ltoes 12.3985
845
root 41.0453 16.9057 -0.30783 883.932 97.7785 886.57
lowerback 2.05599 4.30566 1.01169
upperback -0.273048 5.75966 -0.610658
thorax -1.26575 2.86919 -1.36005
lowerneck -15.2303 12.5757 14.8389
upperneck 16.2415 15.0038 -5.68802
head 9.15206 7.46056 -2.22862
rclavicle 2.87865e-014 3.97569e-015
rhumerus -35.029 24.8233 -100.672
rradius 48.4981
rwrist -2.85753
rhand -7.65954 -30.242
rfingers 7.12502
rthumb 18.2364 -59.4072
lclavicle 2.87865e-014 3.97569e-015
lhumerus -42.1865 -6.27188 87.2045
lradius 24.7334
lwrist -11.2087
lhand -10.022 -23.0345
lfingers 7.12502
lthumb 15.9625 6.32773
rfemur 23.5329 2.28521 20.5948
rtibia 9.03768
rfoot -16.1338 6.70678
rtoes 6.98582
lfemur -5.25211 3.16266 -13.1375
ltibia 2.86069
lfoot 0.328066 10.3248
ltoes 12.8758
